<svg xmlns="http://www.w3.org/2000/svg" width="339.64667" height="69.112144" viewBox="0 0 339.64667 69.112144"><path d="M0 0c-.77 0-1.372-.61-1.382-1.402A1.426 1.426 0 0 1 .059-2.825a1.444 1.444 0 0 1 1.387 1.419C1.45-.61.822 0 0 0m1.435 18.791c0 .515-.032 1.032.005 1.543.126 1.747.351 3.473 1.328 4.992 1.315 2.045 4.445 2.079 5.686-.011.533-.898.946-1.947 1.106-2.975.665-4.285.17-8.492-1.27-12.567-.485-1.371-1.222-2.654-1.844-3.977-.403-.859-.118-1.63.718-1.939.668-.246 1.281.062 1.762.919 2.753 4.904 3.754 10.212 3.549 15.774-.073 1.946-.426 3.864-1.369 5.608-1.207 2.231-3.051 3.386-5.641 3.334-2.525-.051-4.266-1.268-5.379-3.458-1.164-2.288-1.415-4.772-1.353-7.281.096-3.85.585-7.655 1.671-11.362.858-2.929 2.007-5.727 4.237-7.917 1.765-1.735 3.82-2.73 6.386-2.217 1.249.249 2.348.818 3.366 1.556 1.901 1.379 3.408 3.122 4.594 5.139.34.577.144 1.243-.378 1.637-.527.399-1.186.38-1.683-.08-.185-.171-.332-.39-.473-.602-1.133-1.695-2.462-3.195-4.192-4.308-1.678-1.08-3.314-1.064-4.925.087-1.819 1.3-2.798 3.199-3.58 5.205-1.616 4.144-2.178 8.488-2.321 12.9m30.592-5.868c-.051-4.097-1.524-7.67-4.444-10.617C23.96-1.351 20.341-5.011 16.65-8.597c-3.67-3.564-8.106-4.857-13.145-4.069-3.612.566-6.478 2.449-8.987 5.04-3.194 3.297-6.471 6.513-9.728 9.748-3.498 3.475-5.012 7.687-4.53 12.56.354 3.564 1.894 6.618 4.447 9.156 3.494 3.475 6.946 6.991 10.457 10.448 4.465 4.396 9.756 5.665 15.735 3.877 2.53-.758 4.6-2.306 6.451-4.192 3.451-3.518 6.992-6.948 10.439-10.47 2.845-2.906 4.201-6.456 4.238-10.578" style="fill:#e92330;fill-opacity:1;fill-rule:evenodd;stroke:none" transform="matrix(1.33333 0 0 -1.33333 26.436 51.927)"/><path d="M4.03 10.7c-2.524-.05-4.265-1.267-5.379-3.457C-2.513 4.955-2.764 2.471-2.7-.038c.096-3.85.584-7.655 1.67-11.362.859-2.929 2.006-5.727 4.236-7.917 1.766-1.735 3.822-2.73 6.389-2.216 1.248.249 2.347.817 3.364 1.555 1.902 1.38 3.41 3.122 4.596 5.139.339.577.143 1.244-.378 1.638-.528.399-1.188.38-1.684-.08-.185-.172-.332-.391-.474-.603-1.133-1.695-2.461-3.195-4.191-4.308-1.678-1.08-3.315-1.065-4.925.086-1.819 1.3-2.798 3.2-3.581 5.206C.705-8.756.143-4.412 0 0 0 .515-.032 1.03.005 1.542c.126 1.747.35 3.473 1.327 4.992 1.315 2.045 4.446 2.08 5.687-.01.533-.898.945-1.947 1.104-2.975.665-4.285.17-8.492-1.27-12.567-.484-1.37-1.22-2.654-1.842-3.977-.404-.859-.118-1.63.717-1.94.668-.245 1.28.064 1.763.92C10.244-9.11 11.245-3.802 11.039 1.76c-.072 1.946-.424 3.864-1.368 5.608-1.206 2.23-3.05 3.385-5.64 3.333zM-1.435-18.79c-.77 0-1.372-.61-1.382-1.402-.01-.78.66-1.441 1.442-1.422a1.443 1.443 0 0 1 1.387 1.418c.004.796-.625 1.406-1.447 1.406z" style="fill:#fff;fill-opacity:1;fill-rule:evenodd;stroke:none" transform="matrix(1.33333 0 0 -1.33333 28.35 26.873)"/><path d="M72.683 25.4v-3.674H61.211v-2.588h6.618a7.312 7.312 0 0 1-2.035-2.303c-.498-.89-.744-1.867-.744-2.941 0-.95.18-1.818.564-2.609a6.944 6.944 0 0 1 1.573-2.124c.671-.618 1.475-1.133 2.406-1.551a12.502 12.502 0 0 1 3.09-.908V4.115H57.701v-2.66h35.407v2.66H78.133v2.623c1.07.188 2.067.5 2.966.93.897.433 1.667.952 2.319 1.58a6.882 6.882 0 0 1 1.517 2.097c.36.781.538 1.626.538 2.549 0 1.074-.241 2.051-.744 2.941a7.246 7.246 0 0 1-2.033 2.303h6.821v2.588H78.133V25.4h-5.45zm90.353-1.462V8.968c-.376-.145-.822-.254-1.328-.348a19.347 19.347 0 0 0-1.594-.225c-.549-.053-1.092-.088-1.619-.122-.529-.02-.975-.042-1.35-.042h-2.225c.377.703.654 1.502.813 2.41.157.902.236 1.698.236 2.4v6.866h3.637v2.662H136.87v-2.662h3.562V8.231h-3.796V5.574h20.184c.483 0 1.028.015 1.62.04.589.03 1.166.074 1.733.146.568.065 1.094.146 1.592.26.498.107.924.227 1.271.364V3.23h5.249v20.707h-5.249zm-125.07-.035V12.72h-7.397v-2.666h7.396v-8.44c-.465-.376-1-.595-1.6-.646-.604-.051-1.42-.074-2.447-.074h-7.55c-.486 0-.823.114-1.005.36-.195.241-.287.559-.287.969v17.606h9.53v2.701H19.912V.893c0-.73.246-1.372.746-1.901.498-.536 1.257-.803 2.28-.803h10.98c1.027 0 1.863.05 2.508.151.64.116 1.153.28 1.54.492V-12.11h5.117v36.013h-5.118zm8.71 0V-12.11h5.129v36.013h-5.128zm-63.55-.567v-2.58h22.09v-3.594h-22.09v-6.18c0-.78.268-1.424.811-1.918a2.674 2.674 0 0 1 1.891-.745h8.36V4.766H-20.67v-2.59h35.494v2.59H-.16V8.32h11.063v2.663h-21.517c-.383 0-.642.077-.787.237-.151.167-.221.452-.221.858v2.461h22.038v8.798h-27.291zm128.431-.237v-3.353c0-1.372-.372-2.732-1.13-4.081-.75-1.344-1.734-2.602-2.945-3.774a21.455 21.455 0 0 0-4.116-3.11c-1.539-.904-3.098-1.567-4.686-1.993l1.573-2.265c1.053.14 2.24.442 3.551.932a25.972 25.972 0 0 1 7.7 4.456c1.17.981 2.142 2.038 2.923 3.174a18.014 18.014 0 0 1 3.167-3.33c1.2-.99 2.443-1.838 3.743-2.566a22.924 22.924 0 0 1 3.832-1.756c1.263-.446 2.403-.748 3.427-.91l1.577 2.265c-1.533.4-3.06 1.05-4.587 1.951a23.599 23.599 0 0 0-4.138 3.113c-1.24 1.173-2.235 2.435-3.006 3.788-.767 1.366-1.151 2.734-1.151 4.106v3.353h-5.734zm34.036-3.192h5.208v-6.866c0-.349-.002-.736-.017-1.15a14.548 14.548 0 0 0-.1-1.272 22.45 22.45 0 0 0-.204-1.278 5.61 5.61 0 0 0-.321-1.11h-4.566v11.676zm-70.289-.895c.731 0 1.379-.13 1.956-.401a4.684 4.684 0 0 0 1.494-1.067c.42-.444.736-.974.953-1.577a5.883 5.883 0 0 0 .318-1.916c0-.675-.11-1.31-.318-1.92a4.413 4.413 0 0 0-.953-1.571 4.669 4.669 0 0 0-1.494-1.072c-.577-.272-1.225-.4-1.956-.4-.722 0-1.383.128-1.959.4a4.978 4.978 0 0 0-1.517 1.072c-.43.44-.755.968-.987 1.572a5.524 5.524 0 0 0 0 3.835c.232.603.557 1.133.987 1.577.435.444.934.802 1.517 1.067.576.272 1.237.401 1.959.401zm30.681-14.364v-7.962h-9.161v-2.66h35.492v2.66h-9.002v7.962H117.9v-7.962H111.4v7.962h-5.416zm50.632-1.502c-1.429 0-2.751-.208-3.978-.624-1.22-.418-2.286-.996-3.188-1.736a7.997 7.997 0 0 1-2.116-2.661c-.513-1.04-.766-2.163-.766-3.375 0-1.241.253-2.378.766-3.41a7.933 7.933 0 0 1 2.116-2.663c.902-.741 1.969-1.322 3.188-1.738 1.227-.423 2.55-.624 3.978-.624 1.43 0 2.752.201 3.98.624 1.218.416 2.288.997 3.19 1.738a8.042 8.042 0 0 1 2.123 2.663c.507 1.032.764 2.169.764 3.41a7.594 7.594 0 0 1-.764 3.375 8.108 8.108 0 0 1-2.124 2.661c-.9.74-1.97 1.318-3.189 1.736-1.228.416-2.55.624-3.98.624zm0-2.704c.782 0 1.469-.16 2.06-.488a4.509 4.509 0 0 0 1.48-1.267 5.615 5.615 0 0 0 .88-1.82c.204-.678.305-1.391.305-2.117 0-.723-.097-1.437-.282-2.12a5.526 5.526 0 0 0-.868-1.818 4.538 4.538 0 0 0-1.472-1.267c-.592-.33-1.293-.486-2.103-.486-.779 0-1.464.156-2.056.486-.59.322-1.09.75-1.474 1.267a5.461 5.461 0 0 0-.886 1.818 7.402 7.402 0 0 0-.306 2.12c0 .7.102 1.391.306 2.081a5.73 5.73 0 0 0 .886 1.84c.384.537.885.965 1.474 1.283.592.327 1.277.488 2.056.488zM-6.216 0a9.967 9.967 0 0 0-2.317-4.245c-1.12-1.206-2.33-2.225-3.632-3.047-1.313-.815-2.6-1.459-3.877-1.915-1.285-.45-2.296-.742-3.046-.842l1.486-2.27c.789.086 1.772.287 2.968.616 1.2.322 2.47.777 3.8 1.368a29.336 29.336 0 0 1 4.012 2.2c1.35.879 2.575 1.9 3.675 3.088A19.407 19.407 0 0 1 .55-8.134a29.455 29.455 0 0 1 4.08-2.2 27.58 27.58 0 0 1 3.83-1.369c1.2-.329 2.175-.53 2.934-.616l1.494 2.27c-.759.1-1.775.391-3.054.842-1.278.456-2.57 1.1-3.871 1.915a18.271 18.271 0 0 0-3.639 3.047A10.002 10.002 0 0 0-.001 0h-6.215zm68.077-1.17v-7.673c0-.993.274-1.789.83-2.38.548-.598 1.364-.887 2.44-.887h23.175v10.94H61.86zm5.284-2.662h15.912v-5.613H68.075c-.62 0-.93.31-.93.927v4.686z" style="fill:#cd3229;fill-opacity:1;fill-rule:nonzero;stroke:none" transform="matrix(1.33333 0 0 -1.33333 115.267 43.537)"/></svg>